<?xml version="1.0" encoding="utf-8"?>
<!-- Generator: Adobe Illustrator 16.0.0, SVG Export Plug-In . SVG Version: 6.00 Build 0)  -->
<!DOCTYPE svg PUBLIC "-//W3C//DTD SVG 1.1//EN" "http://www.w3.org/Graphics/SVG/1.1/DTD/svg11.dtd">
<svg version="1.1" xmlns="http://www.w3.org/2000/svg" xmlns:xlink="http://www.w3.org/1999/xlink" x="0px" y="0px" viewBox="0 0 530 530" enable-background="new 0 0 530 530" xml:space="preserve">
<g id="food">
	<g>
		<path fill="#653817" d="M86.702,107.494c1.941,17.34,23.216,34.663,41.321,20.714c7.9-6.08,9.14-19.301,8.124-32.546
			c-2.294-29.821-17.57-59.754-25.832-79.894c-0.04-0.453-0.105-0.877-0.734-0.744C101.529,37.109,82.787,72.516,86.702,107.494z"/>
		<path fill="#653817" d="M152.376,125.251c-14.982,7.27-34.739,18.904-37.63,34.77c-2.884,15.792,6.758,28.624,19.182,30.329
			c11.654,1.6,22.087-4.369,28.045-9.617c19.589-17.246,38.698-74.586,33.208-109.487
			C193.771,99.83,172.948,115.269,152.376,125.251z"/>
		<path fill="#653817" d="M46.858,168.897c7.469,10.718,20.522,23.904,38.365,21.453c12.027-1.648,21.409-12.714,19.186-28.849
			c-3.635-26.457-38.389-33.109-56.08-46.608c-14.183-10.82-20.795-22.814-25.828-42.165
			C23.61,110.697,30.361,145.246,46.858,168.897z"/>
		<path fill="#653817" d="M164.921,194.051c-14.654,9.381-31.793,13.718-42.06,25.888c-17.147,20.326-3.579,55.61,28.04,42.907
			c30.38-12.203,47.41-73.387,44.278-116.142C192.735,170.163,180.542,184.053,164.921,194.051z"/>
		<path fill="#653817" d="M68.254,262.845c19.227,7.729,39.56-4.442,36.155-26.629c-0.93-6.09-5.658-13.599-9.588-17.752
			c-11.909-12.597-30.997-16.934-45.753-28.114c-14.103-10.686-21.505-22.962-26.567-42.905
			C22.343,191.856,38.13,250.744,68.254,262.845z"/>
		<path fill="#653817" d="M180.421,258.407c-19.268,21.156-58.47,24.136-64.939,53.265c-5.377,24.206,16.042,37.068,36.895,27.369
			c29.369-13.651,46.289-73.517,42.804-115.397C194.661,238.048,187.715,250.394,180.421,258.407z"/>
		<path fill="#653817" d="M55.708,331.647c3.091,2.931,7.948,6.49,11.807,8.135c20.774,8.844,41.915-5.212,36.159-28.851
			c-2.162-8.881-10.702-17.793-17.708-22.932c-15.3-11.213-36.205-16.213-48.706-31.071c-7.624-9.063-10.75-18.262-14.76-31.812
			C23.418,266.717,33.366,310.41,55.708,331.647z"/>
		<path fill="#653817" d="M178.942,339.041c-18.748,18.95-56.78,23.668-63.46,51.046c-5.208,21.34,11.518,36.583,33.207,29.588
			c6.543-2.109,15.316-8.978,20.665-15.532c16.185-19.84,29.312-66.062,25.827-101.348
			C194.681,318.414,186.196,331.711,178.942,339.041z"/>
		<path fill="#653817" d="M55.708,410.799c3.196,3.038,7.961,6.497,11.807,8.14c21.543,9.173,41.704-6.079,36.159-28.852
			c-7.168-29.445-48.648-32.894-66.413-54.002c-7.684-9.137-10.581-18.281-14.76-31.812
			C23.395,345.869,33.427,389.627,55.708,410.799z"/>
		<path fill="#653817" d="M107.241,433.567c-5.95,0.041-11.64-1.988-17.441-2.793c-1.019,0.302-1.656,0.952-1.624,2.22
			c2.725,23.9,4.33,64.361,8.116,71.758c1.59,2.65,8.249,4.317,10.949,4.317c2.696,0,9.357-1.422,10.95-4.069
			c3.786-7.4,5.393-47.857,8.111-71.758c0.032-1.268-0.606-1.921-1.621-2.223C118.881,431.824,113.191,433.608,107.241,433.567z"/>
		<path fill="#653817" d="M393.99,141.526c-5.654,16.5,6.17,41.291,28.496,36.46c9.727-2.103,16.495-13.521,21.238-25.928
			c10.665-27.932,9.653-61.538,10.79-83.287c0.155-0.423,0.276-0.836-0.349-0.985C437.461,84.286,405.396,108.233,393.99,141.526z"
			/>
		<path fill="#653817" d="M445.755,185.769c-16.648,0.139-39.47,2.167-48.864,15.261c-9.354,13.029-6.116,28.77,4.383,35.643
			c9.845,6.449,21.819,5.533,29.443,3.351c25.073-7.177,66.836-50.78,76.783-84.678
			C494.018,180.567,468.602,185.577,445.755,185.769z"/>
		<path fill="#653817" d="M331.753,179.902c2.178,12.895,8.338,30.415,25.506,35.863c11.571,3.668,24.779-2.301,29.667-17.838
			c8.012-25.464-20.553-46.399-30.771-66.191c-8.191-15.87-9.045-29.547-5.325-49.191
			C335.61,117.331,326.951,151.448,331.753,179.902z"/>
		<path fill="#653817" d="M427.702,253.326c-17.254,2.182-34.591-1.254-49.075,5.338c-24.179,11.005-26.986,48.717,7.014,50.809
			c32.664,2.012,74.193-45.96,89.626-85.943C463.031,243.685,446.081,250.996,427.702,253.326z"/>
		<path fill="#653817" d="M310.954,273.989c14.072,15.231,37.642,12.967,44.051-8.543c1.759-5.908,0.69-14.719-1.084-20.159
			c-5.379-16.499-20.78-28.606-29.334-45.049c-8.185-15.716-9.624-29.981-5.676-50.177
			C299.792,190.125,288.899,250.121,310.954,273.989z"/>
		<path fill="#653817" d="M414.205,318.138c-26.443,10.837-63.141-3.299-81.434,20.251c-15.201,19.562-1.341,40.383,21.647,40.569
			c32.375,0.269,73.233-46.559,87.978-85.906C435.774,305.851,424.222,314.025,414.205,318.138z"/>
		<path fill="#653817" d="M270.225,330.774c1.539,3.975,4.407,9.277,7.191,12.419c14.995,16.915,40.104,13.281,45.003-10.546
			c1.835-8.953-2.072-20.675-6.205-28.329c-9.033-16.703-25.792-30.187-30.742-48.981c-3.019-11.467-1.913-21.12,0.255-35.082
			C268.783,258.236,259.105,301.989,270.225,330.774z"/>
		<path fill="#653817" d="M378.423,390.367c-25.036,9.072-61.417-2.997-79.155,18.876c-13.816,17.053-5.215,38.007,17.372,41.001
			c6.811,0.905,17.672-1.543,25.303-5.169c23.106-10.985,54.717-47.11,66.637-80.497
			C401.461,378.483,388.11,386.857,378.423,390.367z"/>
		<path fill="#653817" d="M236.41,402.299c1.587,4.119,4.418,9.29,7.192,12.425c15.547,17.532,40.281,12.411,45-10.544
			c6.101-29.691-29.911-50.612-36.943-77.317c-3.045-11.555-1.753-21.062,0.251-35.08
			C234.952,329.75,225.321,373.601,236.41,402.299z"/>
		<path fill="#653817" d="M273.246,445c-5.393-2.516-9.667-6.796-14.563-10.017c-1.048-0.158-1.905,0.152-2.413,1.312
			c-7.753,22.769-23.586,60.016-23.326,68.33c0.3,3.08,5.612,7.444,8.049,8.598c2.438,1.158,9.066,2.738,11.637,1.019
			c6.583-5.056,25.31-40.927,37.983-61.357c0.572-1.125,0.271-1.989-0.519-2.7C284.514,448.421,278.606,447.59,273.246,445z"/>
	</g>
</g>
</svg>
