<?xml version="1.0" encoding="utf-8"?>
<!-- Generator: Adobe Illustrator 16.0.0, SVG Export Plug-In . SVG Version: 6.00 Build 0)  -->
<!DOCTYPE svg PUBLIC "-//W3C//DTD SVG 1.1//EN" "http://www.w3.org/Graphics/SVG/1.1/DTD/svg11.dtd">
<svg version="1.1" xmlns="http://www.w3.org/2000/svg" xmlns:xlink="http://www.w3.org/1999/xlink" x="0px" y="0px" viewBox="0 0 530 530" enable-background="new 0 0 530 530" xml:space="preserve">
<g id="education">
	<g>
		<path fill="#FFCD34" d="M429.798,308.109c-30.634,2.854-60.39,16.361-84.531,38.722c-24.141,22.393-39.903,51.097-45.185,81.514
			L500,515L429.798,308.109z"/>
		<path fill="#FFCD34" d="M297.217,383.051L37.94,101.312c-9.299,18.774-10.718,36.145-2.726,44.835l249.369,270.961
			C287.492,405.389,291.667,393.943,297.217,383.051z"/>
		<path fill="#FFCD34" d="M307.4,365.715c7.51-11.187,16.381-21.656,26.583-31.118c24.743-22.925,54.617-37.82,85.733-43.013
			L170.462,20.734c-11.278-12.248-51.559-5.127-82.725,23.783l-22.35,20.709c-6.508,6.06-12.167,12.513-16.973,19.045L307.4,365.715
			z"/>
	</g>
</g>
</svg>
