<?xml version="1.0" encoding="utf-8"?>
<!-- Generator: Adobe Illustrator 16.0.0, SVG Export Plug-In . SVG Version: 6.00 Build 0)  -->
<!DOCTYPE svg PUBLIC "-//W3C//DTD SVG 1.1//EN" "http://www.w3.org/Graphics/SVG/1.1/DTD/svg11.dtd">
<svg version="1.1" xmlns="http://www.w3.org/2000/svg" xmlns:xlink="http://www.w3.org/1999/xlink" x="0px" y="0px" viewBox="0 0 530 530" enable-background="new 0 0 530 530" xml:space="preserve">
<g id="economic">
	<g>
		<path fill="#989836" d="M432.217,147.814L324.22,164.965c-5.436-13.753-10.333-23.295-14.661-28.631
			c-4.328-5.32-11.572-10.702-21.631-16.129v84.087c58.836,15.716,98.123,32.293,117.823,49.745
			C431.933,277.505,445,307.255,445,343.326c0,21.13-4.725,40.528-14.104,58.188c-9.388,17.639-21.406,32.368-36.006,44.19
			c-14.601,11.83-30.135,20.426-46.603,25.746c-16.449,5.341-36.535,8.474-60.36,9.45V515h-42.366v-34.099
			c-28.468-2.522-51.526-7.12-69.25-13.804c-17.713-6.673-32.984-15.931-45.877-27.761c-12.847-11.821-22.779-24.558-29.748-38.22
			C93.728,387.456,88.5,370.946,85,351.566l117.265-13.662c3.51,19.177,8.184,33.042,14.117,41.576
			c5.868,8.524,15.632,16.093,29.18,22.675V299.432c-39.121-10.854-66.827-20.269-83.179-28.223
			c-16.358-7.951-30.52-20.697-42.54-38.229c-12.019-17.563-18.002-38.931-18.002-64.148c0-34.526,12.069-63.355,36.174-86.523
			c24.095-23.168,59.923-36.011,107.547-38.544V15h42.366v28.764c43.343,2.716,76.504,12.985,99.444,30.813
			C410.262,92.409,425.237,116.823,432.217,147.814z M245.562,118.75c-12.396,4.095-21.012,9.166-25.842,15.188
			c-4.82,6.042-7.239,13.154-7.239,21.322c0,8.57,2.419,16.027,7.361,22.349c4.877,6.317,13.438,11.632,25.721,15.879V118.75
			L245.562,118.75z M287.928,405.055c16.479-3.703,28.479-9.786,36.129-18.22c7.66-8.463,11.45-17.924,11.45-28.452
			c0-9.136-3.241-17.528-9.642-25.209c-6.503-7.69-19.101-14.811-37.938-21.413V405.055L287.928,405.055z"/>
	</g>
</g>
</svg>
