<?xml version="1.0" encoding="utf-8"?>
<!-- Generator: Adobe Illustrator 16.0.0, SVG Export Plug-In . SVG Version: 6.00 Build 0)  -->
<!DOCTYPE svg PUBLIC "-//W3C//DTD SVG 1.1//EN" "http://www.w3.org/Graphics/SVG/1.1/DTD/svg11.dtd">
<svg version="1.1" xmlns="http://www.w3.org/2000/svg" xmlns:xlink="http://www.w3.org/1999/xlink" x="0px" y="0px" viewBox="0 0 530 530" enable-background="new 0 0 530 530" xml:space="preserve">
<g id="disaster">
	<path fill="#010101" d="M169.863,98.119c-28.125,30.357,15.866,50.855,50.795,55.788c59.465,8.374,117.774,1.659,166.427-11.407
		c21.449-5.777,55.345-15.935,55.879-35.503c0.61-21.983-38.712-36.242-64.782-41.841c-32.478-6.987-68.057-7.658-97.821-6.351
		c-64.459,2.829-133.341,12.728-171.491,40.572c-12.259,8.962-26.678,24.995-26.678,44.385c0,17.247,12.093,32.747,22.875,41.837
		c86.278,72.831,303.806,60.102,398.874,6.347c-38.676,72.31-134.157,103.384-254.069,96.362
		c-8.539-0.504-28.379-2.843-29.212,6.333c-1.039,11.532,31.649,13.484,45.729,15.223c54.07,6.663,123.752,5.578,165.155-10.153
		c2.322,3.225-3.533,4.955-5.075,6.342c-28.41,25.274-68.863,40.356-118.157,49.451c-11.76,2.162-48.861,1.548-50.809,10.139
		c-3.056,13.455,31.506,8.984,41.915,8.877c19.204-0.204,32.468-1.151,45.738-3.793c3.078,4.839-7.428,12.35-12.718,16.48
		c-30.592,23.945-90.044,30.497-96.527,77.332c-2.272,16.405,6.144,36.345-2.554,49.462c-29.991,6.099-46.089-16.93-60.976-35.516
		c-18.085-22.579-44.353-53.661-34.287-95.089c5.178-21.276,23.691-33.165,22.876-55.794c-0.775-21.432-17.047-33.831-29.233-44.376
		c-35.831-31.02-91.211-63.352-110.521-106.504c-13.866-31.002-2.661-67.525,15.256-87.484
		C77.179,43.892,159.079,23.568,249.87,16.963c91.618-6.65,192.647,2.904,241.367,39.306c22.233,16.62,34.38,50.785,11.438,77.354
		c-35.459,41.054-114.807,58.233-189.284,63.397c-39.665,2.726-78.229,2.913-118.135-5.075
		c-28.315-5.667-76.798-19.755-77.494-48.184C117.084,115.445,151.232,110.607,169.863,98.119z"/>
</g>
</svg>
