<?xml version="1.0" encoding="utf-8"?>
<!-- Generator: Adobe Illustrator 16.0.0, SVG Export Plug-In . SVG Version: 6.00 Build 0)  -->
<!DOCTYPE svg PUBLIC "-//W3C//DTD SVG 1.1//EN" "http://www.w3.org/Graphics/SVG/1.1/DTD/svg11.dtd">
<svg version="1.1" xmlns="http://www.w3.org/2000/svg" xmlns:xlink="http://www.w3.org/1999/xlink" x="0px" y="0px" viewBox="0 0 530 530" enable-background="new 0 0 530 530" xml:space="preserve">
<g id="health">
	<g>
		<path fill="#989798" d="M478.526,107.056h-93.415v-6.173c0-47.357-38.487-85.883-85.795-85.883h-68.635
			c-47.305,0-85.794,38.526-85.794,85.883v6.173H51.476C23.047,107.056,0,130.125,0,158.583v304.89C0,491.926,23.047,515,51.476,515
			h427.05C506.954,515,530,491.926,530,463.473v-304.89C530,130.125,506.954,107.056,478.526,107.056z M230.681,57.941h68.635
			c29.358,0,53.821,21.205,59.003,49.115H171.68C176.862,79.146,201.324,57.941,230.681,57.941z"/>
		<g>
			<path fill="#FFFFFF" d="M234.538,431.326c-5.297,0-9.605-4.312-9.605-9.61v-73.127h-73.132c-5.298,0-9.607-4.309-9.607-9.604
				v-60.926c0-5.296,4.31-9.604,9.607-9.604h73.132v-73.131c0-5.3,4.309-9.61,9.605-9.61h60.927c5.297,0,9.604,4.312,9.604,9.61
				v73.131h73.127c5.3,0,9.611,4.31,9.611,9.604v60.926c0,5.297-4.313,9.604-9.611,9.604h-73.127v73.127
				c0,5.299-4.309,9.61-9.604,9.61H234.538z"/>
			<path fill="#989798" d="M295.465,186.135c5.071,0,9.183,4.112,9.183,9.188v73.554h73.549c5.075,0,9.187,4.111,9.187,9.182v60.926
				c0,5.07-4.111,9.183-9.187,9.183h-73.549v73.549c0,5.075-4.111,9.188-9.183,9.188h-60.928c-5.07,0-9.183-4.112-9.183-9.188
				v-73.549h-73.554c-5.073,0-9.185-4.112-9.185-9.183v-60.926c0-5.07,4.111-9.182,9.185-9.182h73.555v-73.554
				c0-5.076,4.112-9.188,9.183-9.188H295.465 M295.465,185.291h-60.928c-5.53,0-10.028,4.501-10.028,10.033v72.709h-72.708
				c-5.53,0-10.03,4.497-10.03,10.026v60.926c0,5.529,4.5,10.027,10.03,10.027h72.709v72.704c0,5.531,4.499,10.032,10.028,10.032
				h60.927c5.529,0,10.027-4.501,10.027-10.032v-72.704h72.704c5.532,0,10.033-4.498,10.033-10.027v-60.926
				c0-5.529-4.501-10.026-10.033-10.026h-72.704v-72.709C305.492,189.791,300.994,185.291,295.465,185.291L295.465,185.291z"/>
		</g>
	</g>
</g>
</svg>
